<?xml version="1.0" encoding="UTF-8"?>
<svg id="Layer_1" xmlns="http://www.w3.org/2000/svg" version="1.1" viewBox="0 0 930 850">
  <!-- Generator: Adobe Illustrator 30.2.1, SVG Export Plug-In . SVG Version: 2.1.1 Build 1)  -->
  <g id="Shapes">
    <path id="ShapeA" d="M475,34.5c64.4-11.3,187.1,22.6,234,99,27,44,3.8,61.3-12,88-16,27-51,42-56,58l-5,16s4,29,18,41,129,60,154,91,33,37,5,69-139,40-191,63-67,51-36,85,44,38,83,35,50,13,27,49-89.9,39.6-138,27c-42-11-130-56-154-85s-66.4-68.8-36-151c27-73-3.7-109-10.8-127-7.2-18-29.2-16-48.2-38s-17-36,0-56,45-36,27-71,36-175,139-193Z" style="fill: #fff200; isolation: isolate; opacity: .2; stroke: #000; stroke-miterlimit: 10; stroke-width: 3px;"/>
    <path id="ShapeG" d="M439,107.6c-12.7-26.2-33-39-76-36s-139,40-169,82c-30,42-54,106-25,179s62,81,81,88,24,28,29,55,14,49,59,41,75-21,124,35,74,100,160,95,229-60.6,231-173c.8-47-39.4-68.7-58-23-9.1,22.3-29,38-50,38s-69-5-72-34,40.1-128.4,63-185c15.5-38.4,22.5-105-71-84-49,11-94,42-125,49l-31,7s-39,3-49-36-6-67-21-98h0Z" style="fill: #ca4b9b; isolation: isolate; opacity: .2; stroke: #000; stroke-miterlimit: 10; stroke-width: 3px;"/>
    <path id="ShapeF" d="M255,279c-32-24-97-60-134,35s-35,198,0,234,84,66,134,73,58.2,1.5,81-15,54,5.9,74,18c20,12,47,3,57-19l10-22h0s8-65,116-61,141-23,184-134,5-173-21-209-86-21-59,26-12,79-23,86-42,36-84-18-43-100-91-153-73.8-40.6-99,23c-14.2,35.9-20,86-34,130s-67,39-111,6Z" style="fill: #9e1f63; isolation: isolate; opacity: .2; stroke: #000; stroke-miterlimit: 10; stroke-width: 3px;"/>
    <path id="ShapeE" d="M236,510.1c-51.7,15.2-110,52.8-63,135.4s157,182.6,259,125.6,104-90,103-113,46-42,59-46,45-18.3,26-54-59.2-81,5.9-153c65.1-72,78.9-129,0-238s-134.8-104.9-160.9-105c-34,0-102.4,39.1-26,64,30.7,10,50,44,50,63s26.2,70.7-71.1,60c-68.7-7.6-101.9-16.9-145.9-27-83-19-114,36-53,109s136.6,143.9,17,179h0Z" style="fill: #3c2415; isolation: isolate; opacity: .2; stroke: #000; stroke-miterlimit: 10; stroke-width: 3px;"/>
    <path id="ShapeD" d="M395,682c-22,64,3,145,167.1,129,181.3-17.7,171.7-152.3,172.3-193.6.6-41.4-11.4-63.4-26.4-77.4s-19-48-9-68,28-45-29-63-97.2-16.6-109.2-111c-12.1-94.4-81.8-138-203.8-146s-189,54-189,98,29.2,40.3,62.1,14.7c32.9-25.7,61.9-3.7,78.9,11.3l17,15s38,44-75,129-150.8,149.6,43.5,151c142.5,1,124.4,41.4,100.5,111h0Z" style="fill: #58595b; isolation: isolate; opacity: .2; stroke: #000; stroke-miterlimit: 10; stroke-width: 3px;"/>
    <path id="ShapeC" d="M631,655c28.8,42.6,90.8,113.2,198.7-29,74.3-98,37.4-173,14.3-216-7.1-13.3-33-38.2-62-62-20.6-16.9-40-20-62-22s-45,3.7-60.2-25.6c-15.1-29.2-36.8-66.4-90.8-12.4s-98,19-140,3-74.5-52.8-167.8-5.9c-93.3,46.9-122.2,129.9-131.2,169.9s8.8,86,24.9,106c16.1,20,53,33.4,45.4-35-2.3-21,19-38.8,46.7-53s64-33,81,38-9,138,13,191,80,47,136-29,88.4-115.3,154-18Z" style="fill: #ed1c24; isolation: isolate; opacity: .2; stroke: #000; stroke-miterlimit: 10; stroke-width: 3px;"/>
    <path id="ShapeB" d="M752,458c48.9,9.6,150,15,106-148s-119-171-202-167-94,22-108,42-23.7,33.2-54.8,30.9c-31.2-2.2-64.7-13.3-67.2,44.5-2.1,47.6,20,80.5-93,127.5s-110.9,148.4-73,269c17.5,55.7,65.7,97,105,112s71-15,38-49-41.1-51.3-22-89.7c19.1-38.2,40-61.2,155,28.8s144.8,70,154,20.9-16.5-111.4-25.2-161.5c-11.8-68.4,53.4-67.1,87.2-60.4h0Z" style="fill: #2e3192; isolation: isolate; opacity: .2; stroke: #000; stroke-miterlimit: 10; stroke-width: 3px;"/>
  </g>
  <g id="Texts">
    <g id="Header" style="display: none;">
      <text id="Title" transform="translate(350 54.5)" style="fill: #262262; font-family: Tahoma, Tahoma; font-size: 14px; isolation: isolate;"><tspan x="0" y="0">Venn 7-set diagram</tspan></text>
    </g>
    <g id="Group_Names">
      <text id="NameA" transform="translate(642.1 54.5)" style="fill: #262262; font-family: Tahoma, Tahoma; font-size: 24px; isolation: isolate;"><tspan x="0" y="0">NameA</tspan></text>
      <text id="NameB" transform="translate(763.7 154.7)" style="fill: #262262; font-family: Tahoma, Tahoma; font-size: 24px; isolation: isolate;"><tspan x="0" y="0">NameB</tspan></text>
      <text id="NameC" transform="translate(781.5 716.4)" style="fill: #262262; font-family: Tahoma, Tahoma; font-size: 24px; isolation: isolate;"><tspan x="0" y="0">NameC</tspan></text>
      <text id="NameD" transform="translate(576.4 835.5)" style="fill: #262262; font-family: Tahoma, Tahoma; font-size: 24px; isolation: isolate;"><tspan x="0" y="0">NameD</tspan></text>
      <text id="NameE" transform="translate(53.4 781.2)" style="fill: #262262; font-family: Tahoma, Tahoma; font-size: 24px; isolation: isolate;"><tspan x="0" y="0">NameE</tspan></text>
      <text id="NameF" transform="translate(4.9 266.1)" style="fill: #262262; font-family: Tahoma, Tahoma; font-size: 21px; isolation: isolate;"><tspan x="0" y="0">NameF</tspan></text>
      <text id="NameG" transform="translate(96.9 62.5)" style="fill: #262262; font-family: Tahoma, Tahoma; font-size: 24px; isolation: isolate;"><tspan x="0" y="0">NameG</tspan></text>
    </g>
    <g id="Group_Values">
      <text id="Count_A" transform="translate(602.9 106.7)" style="fill: #262262; font-family: Tahoma, Tahoma; font-size: 36px; isolation: isolate;"><tspan x="0" y="0">A</tspan></text>
      <text id="Count_AEG" transform="translate(408.2 98.2)" style="fill: #262262; font-family: Tahoma, Tahoma; font-size: 10px; isolation: isolate;"><tspan x="0" y="0">AEG</tspan></text>
      <text id="Count_ADG" transform="translate(352.1 195)" style="fill: #262262; font-family: Tahoma, Tahoma; font-size: 10px; isolation: isolate;"><tspan x="0" y="0">ADG</tspan></text>
      <text id="Count_ADFG" transform="translate(410.1 200.3)" style="fill: #262262; font-family: Tahoma, Tahoma; font-size: 10px; isolation: isolate;"><tspan x="0" y="0">ADFG</tspan></text>
      <text id="Count_ABDFG" transform="translate(434.2 238.8)" style="fill: #262262; font-family: Tahoma, Tahoma; font-size: 10px; isolation: isolate;"><tspan x="0" y="0">ABDFG</tspan></text>
      <text id="Count_ADEFG" transform="translate(382.6 265.2)" style="fill: #262262; font-family: Tahoma, Tahoma; font-size: 10px; isolation: isolate;"><tspan x="0" y="0">ADEFG</tspan></text>
      <text id="Count_ADEG" transform="translate(343 255.2)" style="fill: #262262; font-family: Tahoma, Tahoma; font-size: 10px; isolation: isolate;"><tspan x="0" y="0">ADEG</tspan></text>
      <text id="Count_ACDEG" transform="translate(330.8 283.9)" style="fill: #262262; font-family: Tahoma, Tahoma; font-size: 10px; isolation: isolate;"><tspan x="0" y="0">ACDEG</tspan></text>
      <text id="Count_CDEG" transform="translate(305.9 276.6)" style="fill: #262262; font-family: Tahoma, Tahoma; font-size: 10px; isolation: isolate;"><tspan x="0" y="0">CDEG</tspan></text>
      <text id="Count_DEG" transform="translate(253.6 240.4)" style="fill: #262262; font-family: Tahoma, Tahoma; font-size: 10px; isolation: isolate;"><tspan x="0" y="0">DEG</tspan></text>
      <text id="Count_EFG" transform="translate(219.1 289.8)" style="fill: #262262; font-family: Tahoma, Tahoma; font-size: 10px; isolation: isolate;"><tspan x="0" y="0">EFG</tspan></text>
      <text id="Count_DEFG" transform="translate(192.2 270.1)" style="fill: #262262; font-family: Tahoma, Tahoma; font-size: 10px; isolation: isolate;"><tspan x="0" y="0">DEFG</tspan></text>
      <text id="Count_DFG" transform="translate(167.2 269.4)" style="fill: #262262; font-family: Tahoma, Tahoma; font-size: 10px; isolation: isolate;"><tspan x="0" y="0">DFG</tspan></text>
      <text id="Count_EG" transform="translate(260.4 270.1)" style="fill: #262262; font-family: Tahoma, Tahoma; font-size: 10px; isolation: isolate;"><tspan x="0" y="0">EG</tspan></text>
      <text id="Count_ABDEF" transform="translate(493.6 230.6)" style="fill: #262262; font-family: Tahoma, Tahoma; font-size: 10px; isolation: isolate;"><tspan x="0" y="0">ABDEF</tspan></text>
      <text id="Count_ABDF" transform="translate(466.7 226)" style="fill: #262262; font-family: Tahoma, Tahoma; font-size: 10px; isolation: isolate;"><tspan x="0" y="0">ABDF</tspan></text>
      <text id="Count_ADF" transform="translate(466.6 199.5)" style="fill: #262262; font-family: Tahoma, Tahoma; font-size: 10px; isolation: isolate;"><tspan x="0" y="0">ADF</tspan></text>
      <text id="Count_ADEF" transform="translate(490.9 208.9)" style="fill: #262262; font-family: Tahoma, Tahoma; font-size: 10px; isolation: isolate;"><tspan x="0" y="0">ADEF</tspan></text>
      <text id="Count_ABF" transform="translate(699.7 175.9)" style="fill: #262262; font-family: Tahoma, Tahoma; font-size: 10px; isolation: isolate;"><tspan x="0" y="0">ABF</tspan></text>
      <text id="Count_ABFG" transform="translate(690.5 195.8)" style="fill: #262262; font-family: Tahoma, Tahoma; font-size: 10px; isolation: isolate;"><tspan x="0" y="0">ABFG</tspan></text>
      <text id="Count_BF" transform="translate(757.2 295.7)" style="fill: #262262; font-family: Tahoma, Tahoma; font-size: 14px; isolation: isolate;"><tspan x="0" y="0">BF</tspan></text>
      <text id="Count_BC" transform="translate(800.3 402.2)" style="fill: #262262; font-family: Tahoma, Tahoma; font-size: 14px; isolation: isolate;"><tspan x="0" y="0">BC</tspan></text>
      <text id="Count_AC" transform="translate(746 477.3)" style="fill: #262262; font-family: Tahoma, Tahoma; font-size: 14px; isolation: isolate;"><tspan x="0" y="0">AC</tspan></text>
      <text id="Count_CG" transform="translate(769.4 556.2)" style="fill: #262262; font-family: Tahoma, Tahoma; font-size: 14px; isolation: isolate;"><tspan x="0" y="0">CG</tspan></text>
      <text id="Count_AD" transform="translate(574.1 730)" style="fill: #262262; font-family: Tahoma, Tahoma; font-size: 14px; isolation: isolate;"><tspan x="0" y="0">AD</tspan></text>
      <text id="Count_DE" transform="translate(439.4 741.8)" style="fill: #262262; font-family: Tahoma, Tahoma; font-size: 14px; isolation: isolate;"><tspan x="0" y="0">DE</tspan></text>
      <text id="Count_CD" transform="translate(705.2 663)" style="fill: #262262; font-family: Tahoma, Tahoma; font-size: 14px; isolation: isolate;"><tspan x="0" y="0">CD</tspan></text>
      <text id="Count_BFG" transform="translate(694.2 295.3)" style="fill: #262262; font-family: Tahoma, Tahoma; font-size: 12px; isolation: isolate;"><tspan x="0" y="0">BFG</tspan></text>
      <text id="Count_ABCEFG" transform="translate(575.8 345.2)" style="fill: #262262; font-family: Tahoma, Tahoma; font-size: 18px; isolation: isolate;"><tspan x="0" y="0">ABCEFG</tspan></text>
      <text id="Count_ABDEFG" transform="translate(460.7 280.3)" style="fill: #262262; font-family: Tahoma, Tahoma; font-size: 18px; isolation: isolate;"><tspan x="0" y="0">ABDEFG</tspan></text>
      <text id="Count_ACDEFG" transform="translate(342.9 325.7)" style="fill: #262262; font-family: Tahoma, Tahoma; font-size: 18px; isolation: isolate;"><tspan x="0" y="0">ACDEFG</tspan></text>
      <text id="Count_ABCDFG" transform="translate(602.2 466.6)" style="fill: #262262; font-family: Tahoma, Tahoma; font-size: 18px; isolation: isolate;"><tspan x="0" y="0">ABCDFG</tspan></text>
      <text id="Count_ABCDEG" transform="translate(518.8 565.8)" style="fill: #262262; font-family: Tahoma, Tahoma; font-size: 18px; isolation: isolate;"><tspan x="0" y="0">ABCDEG</tspan></text>
      <text id="Count_ABCDEF" transform="translate(385.7 565.6)" style="fill: #262262; font-family: Tahoma, Tahoma; font-size: 18px; isolation: isolate;"><tspan x="0" y="0">ABCDEF</tspan></text>
      <text id="Count_BCDEFG" transform="translate(304.4 448.7)" style="fill: #262262; font-family: Tahoma, Tahoma; font-size: 18px; isolation: isolate;"><tspan x="0" y="0">BCDEFG</tspan></text>
      <text id="Count_ABG" transform="translate(670.4 212.2)" style="fill: #262262; font-family: Tahoma, Tahoma; font-size: 10px; isolation: isolate;"><tspan x="0" y="0">ABG</tspan></text>
      <text id="Count_BG" transform="translate(684.5 254.6)" style="fill: #262262; font-family: Tahoma, Tahoma; font-size: 10px; isolation: isolate;"><tspan x="0" y="0">BG</tspan></text>
      <text id="Count_BEG" transform="translate(655.7 278.3)" style="fill: #262262; font-family: Tahoma, Tahoma; font-size: 10px; isolation: isolate;"><tspan x="0" y="0">BEG</tspan></text>
      <text id="Count_BCEG" transform="translate(633.7 296.1)" style="fill: #262262; font-family: Tahoma, Tahoma; font-size: 10px; isolation: isolate;"><tspan x="0" y="0">BCEG</tspan></text>
      <text id="Count_BEFG" transform="translate(660.6 306.3)" style="fill: #262262; font-family: Tahoma, Tahoma; font-size: 10px; isolation: isolate;"><tspan x="0" y="0">BEFG</tspan></text>
      <text id="Count_BCEFG" transform="translate(639.6 323.2)" style="fill: #262262; font-family: Tahoma, Tahoma; font-size: 10px; isolation: isolate;"><tspan x="0" y="0">BCEFG</tspan></text>
      <text id="Count_BCFG" transform="translate(676.4 341.5)" style="fill: #262262; font-family: Tahoma, Tahoma; font-size: 10px; isolation: isolate;"><tspan x="0" y="0">BCFG</tspan></text>
      <text id="Count_ABCFG" transform="translate(651.6 385.5)" style="fill: #262262; font-family: Tahoma, Tahoma; font-size: 10px; isolation: isolate;"><tspan x="0" y="0">ABCFG</tspan></text>
      <text id="Count_ABCDG" transform="translate(620 539.1)" style="fill: #262262; font-family: Tahoma, Tahoma; font-size: 10px; isolation: isolate;"><tspan x="0" y="0">ABCDG</tspan></text>
      <text id="Count_ABCDE" transform="translate(475.5 611.7)" style="fill: #262262; font-family: Tahoma, Tahoma; font-size: 10px; isolation: isolate;"><tspan x="0" y="0">ABCDE</tspan></text>
      <text id="Count_ACDE" transform="translate(436.5 662.1)" style="fill: #262262; font-family: Tahoma, Tahoma; font-size: 10px; isolation: isolate;"><tspan x="0" y="0">ACDE</tspan></text>
      <text id="Count_ACDEF" transform="translate(417.3 616.6)" style="fill: #262262; font-family: Tahoma, Tahoma; font-size: 10px; isolation: isolate;"><tspan x="0" y="0">ACDEF</tspan></text>
      <text id="Count_ACEF" transform="translate(390.9 614.8)" style="fill: #262262; font-family: Tahoma, Tahoma; font-size: 10px; isolation: isolate;"><tspan x="0" y="0">ACEF</tspan></text>
      <text id="Count_BEF" transform="translate(278.3 600)" style="fill: #262262; font-family: Tahoma, Tahoma; font-size: 10px; isolation: isolate;"><tspan x="0" y="0">BEF</tspan></text>
      <text id="Count_BCEF" transform="translate(334.8 590.9)" style="fill: #262262; font-family: Tahoma, Tahoma; font-size: 10px; isolation: isolate;"><tspan x="0" y="0">BCEF</tspan></text>
      <text id="Count_ABCEF" transform="translate(364.3 596.9)" style="fill: #262262; font-family: Tahoma, Tahoma; font-size: 10px; isolation: isolate;"><tspan x="0" y="0">ABCEF</tspan></text>
      <text id="Count_ABCE" transform="translate(363.6 617.9)" style="fill: #262262; font-family: Tahoma, Tahoma; font-size: 10px; isolation: isolate;"><tspan x="0" y="0">ABCE</tspan></text>
      <text id="Count_CEF" transform="translate(171.2 567)" style="fill: #262262; font-family: Tahoma, Tahoma; font-size: 10px; isolation: isolate;"><tspan x="0" y="0">CEF</tspan></text>
      <text id="Count_DEF" transform="translate(212.2 544.8)" style="fill: #262262; font-family: Tahoma, Tahoma; font-size: 10px; isolation: isolate;"><tspan x="0" y="0">DEF</tspan></text>
      <text id="Count_CDEF" transform="translate(176.8 548.5)" style="fill: #262262; font-family: Tahoma, Tahoma; font-size: 10px; isolation: isolate;"><tspan x="0" y="0">CDEF</tspan></text>
      <text id="Count_DF" transform="translate(219.5 503.5)" style="fill: #262262; font-family: Tahoma, Tahoma; font-size: 10px; isolation: isolate;"><tspan x="0" y="0">DF</tspan></text>
      <text id="Count_BDF" transform="translate(255.1 486.1)" style="fill: #262262; font-family: Tahoma, Tahoma; font-size: 10px; isolation: isolate;"><tspan x="0" y="0">BDF</tspan></text>
      <text id="Count_BDEFG" transform="translate(285.3 499.4)" style="fill: #262262; font-family: Tahoma, Tahoma; font-size: 10px; isolation: isolate;"><tspan x="0" y="0">BDEFG</tspan></text>
      <text id="Count_BCDF" transform="translate(251.6 457.1)" style="fill: #262262; font-family: Tahoma, Tahoma; font-size: 10px; isolation: isolate;"><tspan x="0" y="0">BCDF</tspan></text>
      <text id="Count_CDF" transform="translate(208 475.6)" style="fill: #262262; font-family: Tahoma, Tahoma; font-size: 10px; isolation: isolate;"><tspan x="0" y="0">CDF</tspan></text>
      <text id="Count_BCDFG" transform="translate(268.9 444.6)" style="fill: #262262; font-family: Tahoma, Tahoma; font-size: 10px; isolation: isolate;"><tspan x="0" y="0">BCDFG</tspan></text>
      <text id="Count_CDFG" transform="translate(254.8 422.1)" style="fill: #262262; font-family: Tahoma, Tahoma; font-size: 10px; isolation: isolate;"><tspan x="0" y="0">CDFG</tspan></text>
      <text id="Count_CDEFG" transform="translate(292.9 390.8)" style="fill: #262262; font-family: Tahoma, Tahoma; font-size: 10px; isolation: isolate;"><tspan x="0" y="0">CDEFG</tspan></text>
      <text id="Count_CEFG" transform="translate(253.2 336.5)" style="fill: #262262; font-family: Tahoma, Tahoma; font-size: 10px; isolation: isolate;"><tspan x="0" y="0">CEFG</tspan></text>
      <text id="Count_CEG" transform="translate(284.7 288.7)" style="fill: #262262; font-family: Tahoma, Tahoma; font-size: 10px; isolation: isolate;"><tspan x="0" y="0">CEG</tspan></text>
      <text id="Count_ACEFG" transform="translate(297.3 325)" style="fill: #262262; font-family: Tahoma, Tahoma; font-size: 10px; isolation: isolate;"><tspan x="0" y="0">ACEFG</tspan></text>
      <text id="Count_ACEG" transform="translate(307.1 300.5)" style="fill: #262262; font-family: Tahoma, Tahoma; font-size: 10px; isolation: isolate;"><tspan x="0" y="0">ACEG</tspan></text>
      <text id="Count_CFG" transform="translate(216.6 377.6)" style="fill: #262262; font-family: Tahoma, Tahoma; font-size: 10px; isolation: isolate;"><tspan x="0" y="0">CFG</tspan></text>
      <text id="Count_BDFG" transform="translate(272.8 473.4)" style="fill: #262262; font-family: Tahoma, Tahoma; font-size: 10px; isolation: isolate;"><tspan x="0" y="0">BDFG</tspan></text>
      <text id="Count_BDEF" transform="translate(272.4 540.9)" style="fill: #262262; font-family: Tahoma, Tahoma; font-size: 10px; isolation: isolate;"><tspan x="0" y="0">BDEF</tspan></text>
      <text id="Count_BCDEF" transform="translate(334.1 546.2)" style="fill: #262262; font-family: Tahoma, Tahoma; font-size: 10px; isolation: isolate;"><tspan x="0" y="0">BCDEF</tspan></text>
      <text id="Count_CDE" transform="translate(407.7 707.9)" style="fill: #262262; font-family: Tahoma, Tahoma; font-size: 10px; isolation: isolate;"><tspan x="0" y="0">CDE</tspan></text>
      <text id="Count_BDE" transform="translate(394.8 752.1)" style="fill: #262262; font-family: Tahoma, Tahoma; font-size: 10px; isolation: isolate;"><tspan x="0" y="0">BDE</tspan></text>
      <text id="Count_BE" transform="translate(301.5 676.9)" style="fill: #262262; font-family: Tahoma, Tahoma; font-size: 10px; isolation: isolate;"><tspan x="0" y="0">BE</tspan></text>
      <text id="Count_BCE" transform="translate(343.9 665.1)" style="fill: #262262; font-family: Tahoma, Tahoma; font-size: 10px; isolation: isolate;"><tspan x="0" y="0">BCE</tspan></text>
      <text id="Count_CE" transform="translate(378.1 671.6)" style="fill: #262262; font-family: Tahoma, Tahoma; font-size: 10px; isolation: isolate;"><tspan x="0" y="0">CE</tspan></text>
      <text id="Count_ACE" transform="translate(387.7 639)" style="fill: #262262; font-family: Tahoma, Tahoma; font-size: 10px; isolation: isolate;"><tspan x="0" y="0">ACE</tspan></text>
      <text id="Count_BCDE" transform="translate(385.1 729.2)" style="fill: #262262; font-family: Tahoma, Tahoma; font-size: 10px; isolation: isolate;"><tspan x="0" y="0">BCDE</tspan></text>
      <text id="Count_ADE" transform="translate(489.4 694.2)" style="fill: #262262; font-family: Tahoma, Tahoma; font-size: 10px; isolation: isolate;"><tspan x="0" y="0">ADE</tspan></text>
      <text id="Count_ABDE" transform="translate(514.8 640.4)" style="fill: #262262; font-family: Tahoma, Tahoma; font-size: 10px; isolation: isolate;"><tspan x="0" y="0">ABDE</tspan></text>
      <text id="Count_ABDEG" transform="translate(535.1 618.1)" style="fill: #262262; font-family: Tahoma, Tahoma; font-size: 10px; isolation: isolate;"><tspan x="0" y="0">ABDEG</tspan></text>
      <text id="Count_BCDG" transform="translate(636.6 609)" style="fill: #262262; font-family: Tahoma, Tahoma; font-size: 10px; isolation: isolate;"><tspan x="0" y="0">BCDG</tspan></text>
      <text id="Count_ABCD" transform="translate(662.1 691.4)" style="fill: #262262; font-family: Tahoma, Tahoma; font-size: 10px; isolation: isolate;"><tspan x="0" y="0">ABCD</tspan></text>
      <text id="Count_ABD" transform="translate(594.2 685.6)" style="fill: #262262; font-family: Tahoma, Tahoma; font-size: 10px; isolation: isolate;"><tspan x="0" y="0">ABD</tspan></text>
      <text id="Count_BD" transform="translate(615.1 664.5)" style="fill: #262262; font-family: Tahoma, Tahoma; font-size: 10px; isolation: isolate;"><tspan x="0" y="0">BD</tspan></text>
      <text id="Count_BDG" transform="translate(586.6 634)" style="fill: #262262; font-family: Tahoma, Tahoma; font-size: 10px; isolation: isolate;"><tspan x="0" y="0">BDG</tspan></text>
      <text id="Count_ABDG" transform="translate(552.3 636.7)" style="fill: #262262; font-family: Tahoma, Tahoma; font-size: 10px; isolation: isolate;"><tspan x="0" y="0">ABDG</tspan></text>
      <text id="Count_BDEG" transform="translate(567.6 613.4)" style="fill: #262262; font-family: Tahoma, Tahoma; font-size: 10px; isolation: isolate;"><tspan x="0" y="0">BDEG</tspan></text>
      <text id="Count_BCDEG" transform="translate(588.1 591.4)" style="fill: #262262; font-family: Tahoma, Tahoma; font-size: 10px; isolation: isolate;"><tspan x="0" y="0">BCDEG</tspan></text>
      <text id="Count_ACD" transform="translate(687.5 700.2)" style="fill: #262262; font-family: Tahoma, Tahoma; font-size: 10px; isolation: isolate;"><tspan x="0" y="0">ACD</tspan></text>
      <text id="Count_BCD" transform="translate(655.4 663.9)" style="fill: #262262; font-family: Tahoma, Tahoma; font-size: 10px; isolation: isolate;"><tspan x="0" y="0">BCD</tspan></text>
      <text id="Count_ABCF" transform="translate(718.2 414.6)" style="fill: #262262; font-family: Tahoma, Tahoma; font-size: 10px; isolation: isolate;"><tspan x="0" y="0">ABCF</tspan></text>
      <text id="Count_ABCDF" transform="translate(671.9 447.1)" style="fill: #262262; font-family: Tahoma, Tahoma; font-size: 10px; isolation: isolate;"><tspan x="0" y="0">ABCDF</tspan></text>
      <text id="Count_ACF" transform="translate(712.6 471.8)" style="fill: #262262; font-family: Tahoma, Tahoma; font-size: 10px; isolation: isolate;"><tspan x="0" y="0">ACF</tspan></text>
      <text id="Count_ACFG" transform="translate(693.9 494.8)" style="fill: #262262; font-family: Tahoma, Tahoma; font-size: 10px; isolation: isolate;"><tspan x="0" y="0">ACFG</tspan></text>
      <text id="Count_CDG" transform="translate(697.5 587.2)" style="fill: #262262; font-family: Tahoma, Tahoma; font-size: 10px; isolation: isolate;"><tspan x="0" y="0">CDG</tspan></text>
      <text id="Count_ACDG" transform="translate(670.2 531.2)" style="fill: #262262; font-family: Tahoma, Tahoma; font-size: 10px; isolation: isolate;"><tspan x="0" y="0">ACDG</tspan></text>
      <text id="Count_ACDFG" transform="translate(660.5 495)" style="fill: #262262; font-family: Tahoma, Tahoma; font-size: 10px; isolation: isolate;"><tspan x="0" y="0">ACDFG</tspan></text>
      <text id="Count_ACDF" transform="translate(678.6 471)" style="fill: #262262; font-family: Tahoma, Tahoma; font-size: 10px; isolation: isolate;"><tspan x="0" y="0">ACDF</tspan></text>
      <text id="Count_ABC" transform="translate(769.5 439.5)" style="fill: #262262; font-family: Tahoma, Tahoma; font-size: 10px; isolation: isolate;"><tspan x="0" y="0">ABC</tspan></text>
      <text id="Count_ABCG" transform="translate(797 452.4)" style="fill: #262262; font-family: Tahoma, Tahoma; font-size: 10px; isolation: isolate;"><tspan x="0" y="0">ABCG</tspan></text>
      <text id="Count_ACG" transform="translate(765.3 503.7)" style="fill: #262262; font-family: Tahoma, Tahoma; font-size: 10px; isolation: isolate;"><tspan x="0" y="0">ACG</tspan></text>
      <text id="Count_BCF" transform="translate(739.6 358.3)" style="fill: #262262; font-family: Tahoma, Tahoma; font-size: 10px; isolation: isolate;"><tspan x="0" y="0">BCF</tspan></text>
      <text id="Count_BCG" transform="translate(821 443)" style="fill: #262262; font-family: Tahoma, Tahoma; font-size: 10px; isolation: isolate;"><tspan x="0" y="0">BCG</tspan></text>
      <text id="Count_ABEG" transform="translate(607.6 236.3)" style="fill: #262262; font-family: Tahoma, Tahoma; font-size: 10px; isolation: isolate;"><tspan x="0" y="0">ABEG</tspan></text>
      <text id="Count_ABEF" transform="translate(528.7 218.4)" style="fill: #262262; font-family: Tahoma, Tahoma; font-size: 10px; isolation: isolate;"><tspan x="0" y="0">ABEF</tspan></text>
      <text id="Count_ABEFG" transform="translate(551.7 260.9)" style="fill: #262262; font-family: Tahoma, Tahoma; font-size: 10px; isolation: isolate;"><tspan x="0" y="0">ABEFG</tspan></text>
      <text id="Count_ABCEG" transform="translate(601.4 280.8)" style="fill: #262262; font-family: Tahoma, Tahoma; font-size: 10px; isolation: isolate;"><tspan x="0" y="0">ABCEG</tspan></text>
      <text id="Count_AG" transform="translate(380.3 125.6)" style="fill: #262262; font-family: Tahoma, Tahoma; font-size: 14px; isolation: isolate;"><tspan x="0" y="0">AG</tspan></text>
      <text id="Count_DG" transform="translate(274.4 195.7)" style="fill: #262262; font-family: Tahoma, Tahoma; font-size: 14px; isolation: isolate;"><tspan x="0" y="0">DG</tspan></text>
      <text id="Count_FG" transform="translate(173.8 312.1)" style="fill: #262262; font-family: Tahoma, Tahoma; font-size: 14px; isolation: isolate;"><tspan x="0" y="0">FG</tspan></text>
      <text id="Count_CF" transform="translate(175.1 433)" style="fill: #262262; font-family: Tahoma, Tahoma; font-size: 14px; isolation: isolate;"><tspan x="0" y="0">CF</tspan></text>
      <text id="Count_EF" transform="translate(210 594.4)" style="fill: #262262; font-family: Tahoma, Tahoma; font-size: 14px; isolation: isolate;"><tspan x="0" y="0">EF</tspan></text>
      <text id="Count_AFG" transform="translate(415.1 146.6)" style="fill: #262262; font-family: Tahoma, Tahoma; font-size: 12px; isolation: isolate;"><tspan x="0" y="0">AFG</tspan></text>
      <text id="Count_AF" transform="translate(458 165.2)" style="fill: #262262; font-family: Tahoma, Tahoma; font-size: 14px; isolation: isolate;"><tspan x="0" y="0">AF</tspan></text>
      <text id="Count_AE" transform="translate(536.3 127.6)" style="fill: #262262; font-family: Tahoma, Tahoma; font-size: 14px; isolation: isolate;"><tspan x="0" y="0">AE</tspan></text>
      <text id="Count_AB" transform="translate(659.6 165.6)" style="fill: #262262; font-family: Tahoma, Tahoma; font-size: 14px; isolation: isolate;"><tspan x="0" y="0">AB</tspan></text>
      <text id="Count_ABE" transform="translate(582.2 186.5)" style="fill: #262262; font-family: Tahoma, Tahoma; font-size: 12px; isolation: isolate;"><tspan x="0" y="0">ABE</tspan></text>
      <text id="Count_AEF" transform="translate(482.8 144.9)" style="fill: #262262; font-family: Tahoma, Tahoma; font-size: 12px; isolation: isolate;"><tspan x="0" y="0">AEF</tspan></text>
      <text id="Count_AEFG" transform="translate(418.4 115.5)" style="fill: #262262; font-family: Tahoma, Tahoma; font-size: 10px; isolation: isolate;"><tspan x="0" y="0">AEFG</tspan></text>
      <text id="Count_G" transform="translate(281.9 134.4)" style="fill: #262262; font-family: Tahoma, Tahoma; font-size: 36px; isolation: isolate;"><tspan x="0" y="0">G</tspan></text>
      <text id="Count_F" transform="translate(127.3 358.2)" style="fill: #262262; font-family: Tahoma, Tahoma; font-size: 36px; isolation: isolate;"><tspan x="0" y="0">F</tspan></text>
      <text id="Count_E" transform="translate(214.4 669.9)" style="fill: #262262; font-family: Tahoma, Tahoma; font-size: 36px; isolation: isolate;"><tspan x="0" y="0">E</tspan></text>
      <text id="Count_D" transform="translate(506.1 792.9)" style="fill: #262262; font-family: Tahoma, Tahoma; font-size: 36px; isolation: isolate;"><tspan x="0" y="0">D</tspan></text>
      <text id="Count_C" transform="translate(770.3 644.8)" style="fill: #262262; font-family: Tahoma, Tahoma; font-size: 36px; isolation: isolate;"><tspan x="0" y="0">C</tspan></text>
      <text id="Count_B" transform="translate(817 341.5)" style="fill: #262262; font-family: Tahoma, Tahoma; font-size: 36px; isolation: isolate;"><tspan x="0" y="0">B</tspan></text>
      <text id="Count_ABCDEFG" transform="translate(385.4 438.1)" style="fill: #fff; font-family: Tahoma, Tahoma; font-size: 48px; isolation: isolate;"><tspan x="0" y="0">ABCDEFG</tspan></text>
    </g>
  </g>
  <g id="Group_Bullets">
    <circle id="BulletA" cx="59.2" cy="54.5" r="6.9" style="fill: #fff200; isolation: isolate; opacity: .2; stroke: #010101; stroke-width: 2px;"/>
    <circle id="BulletG" cx="59.2" cy="73.2" r="6.9" style="fill: #ca4b9b; isolation: isolate; opacity: .2; stroke: #010101; stroke-width: 2px;"/>
    <circle id="BulletF" cx="59.2" cy="91.9" r="6.9" style="fill: #9e1f63; isolation: isolate; opacity: .2; stroke: #010101; stroke-width: 2px;"/>
    <circle id="BulletE" cx="59.2" cy="110.6" r="6.9" style="fill: #3c2415; isolation: isolate; opacity: .2; stroke: #010101; stroke-width: 2px;"/>
    <circle id="BulletD" cx="59.2" cy="129.3" r="6.9" style="fill: #58595b; isolation: isolate; opacity: .2; stroke: #010101; stroke-width: 2px;"/>
    <circle id="BulletC" cx="59.2" cy="148" r="6.9" style="fill: #ed1c24; isolation: isolate; opacity: .2; stroke: #010101; stroke-width: 2px;"/>
    <circle id="BulletB" cx="59.2" cy="166.7" r="6.9" style="fill: #2e3192; isolation: isolate; opacity: .2; stroke: #010101; stroke-width: 2px;"/>
  </g>
</svg>